<?xml version="1.0" encoding="UTF-8"?>
<svg version="1.1" viewBox="0 0 26.988 8.4718" xmlns="http://www.w3.org/2000/svg" xmlns:cc="http://creativecommons.org/ns#" xmlns:dc="http://purl.org/dc/elements/1.1/" xmlns:rdf="http://www.w3.org/1999/02/22-rdf-syntax-ns#">
<g transform="translate(-221.59 -271.33)">
<path transform="matrix(.26458 0 0 .26458 221.59 266.57)" d="m0.98828 17.979a1.0001 1.0001 0 0 0-0.10156 0.0059 1.0001 1.0001 0 0 0-0.87891 1.0117v9.8965a1.0003 1.0003 0 0 0 0 0.20898v9.8926a1.0001 1.0001 0 0 0 0.019531 0.29883c0.10356 3.8129 2.1631 7.3183 5.4785 9.2324 3.402 1.9641 7.598 1.9641 11 0 2.0203-1.1664 3.5639-2.9312 4.498-4.9883 0.93407 2.0574 2.4795 3.8217 4.5 4.9883 3.402 1.9641 7.598 1.9641 11 0 2.0166-1.1643 3.5594-2.9243 4.4941-4.9766 0.53571 1.1797 1.2804 2.2765 2.2305 3.2266 3.144 3.144 7.8805 4.0863 11.988 2.3848 2.6251-1.0874 4.66-3.123 5.791-5.6094 1.7368 3.7944 5.5607 6.4434 9.998 6.4434s8.2611-2.6491 9.998-6.4434c0.92527 2.0353 2.4609 3.7974 4.5 4.9746 4.3075 2.4869 9.7642 1.767 13.281-1.75a1.0022 1.0022 0 1 0-1.418-1.4161c-2.8838 2.8838-7.3353 3.4708-10.867 1.4316-2.828-1.6328-4.4869-4.6142-4.4961-7.7598 3.8e-5 -0.01134 2e-3 -0.02382 2e-3 -0.03516 0-0.03402-4e-3 -0.06874-0.0078-0.10352 0.0076-0.73769 0.11092-1.484 0.30859-2.2227 1.0555-3.9393 4.617-6.6719 8.6953-6.6719h10.002a1.001 1.001 0 1 0 0-2.002h-10.002c-4.3551 0-8.2404 2.5709-10.004 6.4355-1.7386-3.79-5.56-6.4355-9.9941-6.4355-3.7231 0-7.0147 1.8666-9.0059 4.707v-3.6191a1.0003 1.0003 0 0 0 0-0.16797v-9.918a1.0001 1.0001 0 0 0-1.1133-1.0117 1.0001 1.0001 0 0 0-0.87891 1.0117v8.998h-9.0059c-3.6308 0-6.9706 1.7922-9 4.6855v-9.6816a1.0001 1.0001 0 0 0-1.0098-1.0195 1.0001 1.0001 0 0 0-0.99023 1.0195v15.996c0 3.217-1.7101 6.1864-4.4961 7.7949s-6.2199 1.6085-9.0059 0c-2.5091-1.4487-4.1312-4.0046-4.4316-6.8477 4.521-0.44054 8.3682-3.6446 9.5625-8.1016 1.2873-4.8043-0.82341-9.8842-5.1309-12.371-2.1537-1.2435-4.5901-1.6813-6.9316-1.373-2.3415 0.30841-4.5813 1.3645-6.3398 3.123a1.0001 1.0001 0 1 0 1.4102 1.416c2.8838-2.8838 7.3333-3.4708 10.865-1.4316 3.5319 2.0392 5.2489 6.1818 4.1934 10.121-0.96771 3.6115-4.0439 6.2019-7.6914 6.6094v-8.9355a1.0001 1.0001 0 0 0-1.0195-1.0176 1.0001 1.0001 0 0 0-0.98242 1.0176v9.9277a1.0003 1.0003 0 0 0-2e-3 0.10156c-0.01134 3.204-1.7237 6.1588-4.5 7.7617-2.786 1.6085-6.212 1.6085-8.998 0-2.7752-1.6023-4.4886-4.5553-4.502-7.7578a1.0001 1.0001 0 0 0-0.00195-0.03711v-8.998h8.998a1.0003 1.0003 0 1 0 0-2h-8.9981v-9a1.0001 1.0001 0 0 0-1.0117-1.0176zm40.016 0.01758a1 1 0 0 0-1 1 1 1 0 0 0 1 1 1 1 0 0 0 1-1 1 1 0 0 0-1-1zm9.994 12.002h9.0059v8.8398a1.0001 1.0001 0 0 0 0 0.1582 1.0001 1.0001 0 0 0-0.0039 0.10156c-0.04044 3.6021-2.2205 6.8357-5.5547 8.2168-3.3657 1.3941-7.2345 0.62094-9.8105-1.9551-2.576-2.576-3.3433-6.439-1.9492-9.8047s4.6695-5.5566 8.3125-5.5566zm20.004 0c4.9824 0 8.998 4.0156 8.998 8.998s-4.0156 9.0059-8.998 9.0059c-4.9633 0-8.9732-3.9933-9.0039-8.9492a1.0001 1.0001 0 0 0-2e-3 -0.05664c0-4.9824 4.0235-8.998 9.0059-8.998z"/>
</g>
</svg>